<svg id="レイヤー_1" data-name="レイヤー 1" xmlns="http://www.w3.org/2000/svg" viewBox="0 0 900 900"><defs><style>.cls-1{fill:#fff;}</style></defs><title>logo</title><path class="cls-1" d="M742.66,223.75a218.34,218.34,0,0,0,18.12-120,28,28,0,1,0-23.07,9.14,194.79,194.79,0,0,1-16.87,100.86c-12.27,26.8-30.62,50.23-49,63.36-.36-.95-.61-1.55-.69-1.75a12,12,0,0,0-15.8-6.4c-13.43,5.76-37.48,7.58-65.06,5.46A78.91,78.91,0,0,0,594,250c0-23.48-7.48-47.56-20.52-66.06C558.52,162.7,537.75,151,515,151c-24.62,0-43.19,12.36-53.71,35.74A103.27,103.27,0,0,0,455,205.81a103.27,103.27,0,0,0-6.29-19.07C438.19,163.36,419.62,151,395,151c-22.82,0-44.39,11.58-60.73,32.6C319.48,202.62,311,226.83,311,250a78.47,78.47,0,0,0,4.35,26.22c-34.8,2.53-62.69.6-71.22-2.5A12,12,0,0,0,229,280.4c-.77,1.85-1.51,3.91-2.21,6.14C188.11,274,172.9,244.39,167,221.12c-9.75-38.39-.13-83.78,22.39-108.46a28,28,0,1,0-24.33-8c-9.48,13-16.83,29.19-21.23,47.18-6.06,24.86-6.1,51.56-.09,75.21,10.58,41.64,38.14,70.94,77.89,83.06-4.75,33.17-2.61,77.12,15.25,93.7a12,12,0,0,0,13.33,2C268,397.36,297.78,392.5,332,392.5c28.47,0,49.24,3.3,58.25,6.29,4,15.17,1.79,37.72-2.5,52-26.93-5.82-69-9.05-109.75-8.18-39.31.83-90.45,5.56-110.87,23.31a12,12,0,0,0-3.73,6c-10.73,40.77-2.1,96.32,18.12,116.54a12.07,12.07,0,0,0,4,2.65c17.79,7.12,43.52,9.82,71.3,9.82,44.11,0,93.36-6.81,124.05-13.59-4.79,20.25-7.8,48.37-6.08,77.58,2.23,38.14,13.14,90.64,52.39,124.17,33.4,28.53,86.19,49.48,141.23,56a304.82,304.82,0,0,0,36.22,2.2c46,0,86.83-11.18,117.24-32.55a12,12,0,0,0,2.74-2.67c24-32.34,21.07-93.11,11.51-115.43a12,12,0,0,0-11.52-7.27C616.41,693.82,560.71,684,538.4,656.67c-12.55-15.38-15.7-38.65-9.55-70.91,43.9,12.19,143.35,19.39,184.95,5.63a11.9,11.9,0,0,0,4.72-2.9c20.94-21,27.06-80.8,18.16-116.4a12,12,0,0,0-5.85-7.6c-48.35-26.68-155.74-23.42-199.43-13.65-6.21-15.31-8.81-36.7-6.15-51.91,13.63-4.13,39.39-5.89,68.51-4.53,36.3,1.7,59.6,7.19,64.55,10.54a12,12,0,0,0,18.22-6.49c11.46-38.2,7.5-74.18,2.33-97.27C703.27,286.42,727.12,257.7,742.66,223.75ZM515,169c36.49,0,61,41.88,61,81,0,21.3-9.15,33.68-16.82,40.31a47.29,47.29,0,0,1-37.88,10.78C486.11,295.94,469,277.6,469,245,469,210.33,477,169,515,169ZM348.48,194.65C361.34,178.11,377.86,169,395,169c38,0,46,41.33,46,76,0,30.77-20.35,50.69-57.3,56.09a47.3,47.3,0,0,1-37.88-10.78C338.15,283.68,329,271.3,329,250,329,231,336.28,210.34,348.48,194.65Zm308.27,184.1c-20.73-5.92-51.09-7.82-61.86-8.32-18.27-.86-63.14-1.72-85,8.74a12,12,0,0,0-6.32,7.38c-7.15,23.83-2,62.59,11.2,84.62A12,12,0,0,0,529,476.34c13.42-4.66,48.57-9.08,89.77-8.51s75.61,6.11,95.78,15.32c5.35,28.83-.19,71.77-11.24,86.36-42.35,11.8-152.47,1.88-178.08-10.34a12,12,0,0,0-16.82,8c-11.57,46.86-7.84,81.12,11.43,104.73,15.3,18.75,40.51,30.9,77.07,37.13,29.5,5,67.64,6.57,119.52,4.8,4.37,19.87,4.86,60.69-9.93,82.55-33.27,22.57-81.16,31.45-135.16,25-50.52-6-98.55-24.89-128.48-50.46-32.83-28-42.06-73.85-44-107.33-2.4-40.87,5.26-76.66,11.19-88a12,12,0,0,0-14.7-16.86c-32.95,11.86-151,27.77-198.28,11.1-10.32-13.14-19-53.36-11.35-87.76,11.38-7.06,40.7-14.32,92.87-15.43,43.67-.93,90.18,3.14,113.1,9.89a12,12,0,0,0,14-5.87c10.34-19.45,15-60.81,5.58-85a12.06,12.06,0,0,0-5.08-6c-14-8.24-48.65-11.16-74.1-11.16-19.8,0-55,1.63-82.64,11.7-3-7-5.65-19.11-5.86-37.2-.17-15.41,1.61-31.87,4.56-43.82,19.07,3,49.57,3,81-.05a62.5,62.5,0,0,0,5,4.8,64.92,64.92,0,0,0,42.53,15.68,67.72,67.72,0,0,0,9.72-.7c22.47-3.29,40.27-11.31,52.91-23.83a65.06,65.06,0,0,0,15.43-24.22,63.16,63.16,0,0,0,13.28,23.83c11.49,12.82,28.57,21,50.78,24.22a67.82,67.82,0,0,0,9.72.7A64.94,64.94,0,0,0,571,303.93a63.76,63.76,0,0,0,6.55-6.6c26.08,2.84,53.84,3,75-2.24C657.11,311.06,663.94,343.38,656.75,378.75ZM420,232c0,11.05-7.16,20-16,20s-16-8.95-16-20,7.16-20,16-20S420,221,420,232Zm102,0c0,11.05-7.16,20-16,20s-16-8.95-16-20,7.16-20,16-20S522,221,522,232Z"/></svg>