<svg id="レイヤー_1" data-name="レイヤー 1" xmlns="http://www.w3.org/2000/svg" viewBox="0 0 1000 400"><defs><style>.cls-1{fill:#fff;}</style></defs><title>logo-type</title><path class="cls-1" d="M81.19,121.49V278.27a11.86,11.86,0,0,1-3,8.22q-4.51,5.24-12.73,5.24-9.29,0-13.58-6.55a12.53,12.53,0,0,1-1.9-6.91V121.49a11.51,11.51,0,0,1,6.19-10.6,18.89,18.89,0,0,1,20.12.84A11.45,11.45,0,0,1,81.19,121.49Zm64.52-14.64a18.58,18.58,0,0,1,10,3,18.1,18.1,0,0,1,9.41,16.55,19.68,19.68,0,0,1-19.64,19.52,19.23,19.23,0,0,1-9.29-2.38q-10.12-5.72-10.12-17.26a18.39,18.39,0,0,1,6.79-14.76A19.51,19.51,0,0,1,145.71,106.85Zm15.48,66.9V278.27a11.86,11.86,0,0,1-3,8.22q-4.52,5.24-12.73,5.24-9.28,0-13.58-6.55a12.53,12.53,0,0,1-1.9-6.91V173.75a11.86,11.86,0,0,1,6.19-10.83,18.28,18.28,0,0,1,20.12.83A12.09,12.09,0,0,1,161.19,173.75Zm71.91,96.79-1.43,9.76q-1.68,11.43-13.1,11.43-12.73,0-12.74-13V121.49a12.16,12.16,0,0,1,3-8.22q4.4-4.87,12.26-4.88,9,0,13.22,6.19a12.08,12.08,0,0,1,2,6.91v54.64q13.33-16.55,37.5-16.55,28.21,0,45.36,22.62,13.68,18.23,13.69,43.69,0,27.51-14.05,45.6-16.55,21.19-44.52,21.19a48.72,48.72,0,0,1-31.55-11.07A40.23,40.23,0,0,1,233.1,270.54Zm3-52V228q0,19.88,14.64,31.78a28.69,28.69,0,0,0,18.34,6.79,27.86,27.86,0,0,0,23-11.19Q301,244.23,301,225.77q0-20.36-11.55-31.78a28.71,28.71,0,0,0-20.95-8.57,30.9,30.9,0,0,0-19.52,7Q236.08,202.69,236.07,218.51Zm148,15q.7,14.42,10.24,23.34,10.35,9.75,26.19,9.76a41.29,41.29,0,0,0,30.71-13.1,10.75,10.75,0,0,1,8.1-3.69q5.23,0,9.64,4.41a13.7,13.7,0,0,1,4.05,9.88q0,6.54-6.55,12.74-17,16.31-47.14,16.3-26.09,0-43.69-14.52-23.22-18.93-23.22-52.5,0-24.88,13.1-42.62,18.09-24.64,50.83-24.64,27,0,44.52,19.88,14.88,16.78,14.88,37.74,0,9.28-3.45,13-3.81,4-12.38,4Zm.47-23.93H440.6c2.45,0,3.69-1,3.69-3q0-6.44-5.36-13-8.22-10.11-23-10.12A32.24,32.24,0,0,0,399.4,188,29.38,29.38,0,0,0,384.52,209.58Zm152.86,11.67v57.26a11.85,11.85,0,0,1-3.33,8.57q-4.53,4.65-12.15,4.65-9,0-13.21-6.19a12.21,12.21,0,0,1-2-7V172.68a11.77,11.77,0,0,1,3-8.1q4.29-4.52,11.55-4.52,9.16,0,12.86,6.9a11.37,11.37,0,0,1,1.43,5.72v12.5q6.06-10.47,12.14-16.19a38.29,38.29,0,0,1,26.78-10.24,30.87,30.87,0,0,1,21.08,7.74q6.3,5.59,6.31,12.74a15.15,15.15,0,0,1-3.46,9.52,14.88,14.88,0,0,1-12.26,6.07,12.85,12.85,0,0,1-8.21-2.62,16.14,16.14,0,0,0-10.24-3.45Q549.88,188.75,537.38,221.25Zm112.38-41.43q11.43-20.23,35.12-20.24A35,35,0,0,1,706,166.13a30.5,30.5,0,0,1,10.72,14.64q13.44-21.18,38.93-21.19,22.36,0,32.73,19.77,6.31,12,6.31,29.4v70a11.45,11.45,0,0,1-3.33,8.45q-4.41,4.53-12,4.53-10.12,0-13.69-7.5a12,12,0,0,1-1.2-5.48v-67A36.14,36.14,0,0,0,761.55,197q-4.65-10.35-14.17-10.35-8.68,0-16.19,8.69a31.74,31.74,0,0,0-8,21.07V279a11.74,11.74,0,0,1-3.09,8.09q-4.41,4.65-12,4.65-9.54,0-13.58-6.79A11.1,11.1,0,0,1,693,279V212.92q0-10-3.1-16.79-4.29-9.52-13-9.52-9,0-16.78,9.64A34.2,34.2,0,0,0,652.26,218v60.71a11.56,11.56,0,0,1-2.86,8q-4.51,5-12.38,5-9.88,0-13.69-7.15a12.41,12.41,0,0,1-1.31-5.83V172.92a11.61,11.61,0,0,1,3.1-8.22,12.65,12.65,0,0,1,9.76-4.16q12.74,0,14.17,12.61ZM887.5,158.87q26.89,0,44.29,17.86,18.21,18.69,18.21,49,0,23.94-11.19,41.08-17.26,26.31-51.55,26.3-30,0-47.38-20.95Q824.64,254,824.64,225.65q0-30.35,18.1-48.8Q860.23,158.87,887.5,158.87Zm-.36,25.83q-15.12,0-23.81,13.1-7.26,10.95-7.26,27.74,0,12.74,4,22.26,8.08,18.81,27.38,18.81,15.36,0,23.81-12.86,7.26-11.07,7.26-28.21,0-17.39-7.74-28.34Q902.15,184.71,887.14,184.7Z"/></svg>